<svg width="22" height="20" viewBox="0 0 22 20" fill="none" xmlns="http://www.w3.org/2000/svg">
<path d="M10.9999 19L7.3999 15.4H4.9999C4.04512 15.4 3.12945 15.0207 2.45432 14.3456C1.77919 13.6705 1.3999 12.7548 1.3999 11.8V4.6C1.3999 3.64522 1.77919 2.72955 2.45432 2.05442C3.12945 1.37928 4.04512 1 4.9999 1H16.9999C17.9547 1 18.8704 1.37928 19.5455 2.05442C20.2206 2.72955 20.5999 3.64522 20.5999 4.6V11.8C20.5999 12.7548 20.2206 13.6705 19.5455 14.3456C18.8704 15.0207 17.9547 15.4 16.9999 15.4H14.5999L10.9999 19Z" stroke="#4580EE" stroke-width="2" stroke-linecap="round" stroke-linejoin="round"/>
</svg>
